<svg width="166" height="40" viewBox="0 0 166 40" fill="none" xmlns="http://www.w3.org/2000/svg">
<path d="M69.309 20.8604C69.1004 20.4172 68.8136 20.0521 68.5007 19.7392C68.7093 19.3741 68.7875 18.9309 68.7875 18.4093V14.7588C68.7875 14.2633 68.6832 13.7939 68.4746 13.3507C68.266 12.9074 67.9531 12.5423 67.588 12.2033C67.223 11.8904 66.7797 11.6297 66.2843 11.4471C65.7888 11.2646 65.2673 11.1603 64.7197 11.1603H48.4746V29.8565H65.5281C66.1017 29.8565 66.6232 29.7522 67.1187 29.5697C67.6141 29.3872 68.0574 29.1264 68.4225 28.8135C68.7875 28.5006 69.0743 28.1095 69.309 27.6662C69.5176 27.2229 69.6219 26.7535 69.6219 26.2581V22.2424C69.6219 21.747 69.5176 21.2776 69.309 20.8604ZM52.3338 14.7588C52.3338 14.6284 52.412 14.5762 52.5424 14.5762H64.6676C64.7979 14.5762 64.8501 14.6284 64.8501 14.7588V18.4093C64.8501 18.5397 64.7979 18.5919 64.6676 18.5919H52.5424C52.412 18.5919 52.3338 18.5397 52.3338 18.4093V14.7588ZM65.7106 26.232C65.7106 26.3624 65.6324 26.4145 65.502 26.4145H52.5424C52.412 26.4145 52.3338 26.3624 52.3338 26.232V22.2164C52.3338 22.1121 52.412 22.0599 52.5424 22.0599H65.502C65.6324 22.0599 65.7106 22.1121 65.7106 22.2164V26.232Z" fill="black"/>
<path d="M93.9247 15.515V13.2204C93.9247 12.0731 92.9338 11.1604 91.7082 11.1604H90.3002C90.1437 11.1343 89.9872 11.1343 89.8308 11.1343H76.8451C76.6887 11.1343 76.5322 11.1343 76.3758 11.1604H74.9938C73.7682 11.1604 72.7773 12.0731 72.7773 13.2204V14.7589V15.515V25.4759V26.206V27.7706C72.7773 28.9179 73.7682 29.8306 74.9938 29.8306H76.8451H78.879H87.7969H89.8308H91.6822C92.9077 29.8306 93.8986 28.9179 93.8986 27.7706V25.4759L93.9247 15.515ZM76.8451 26.4146C76.7148 26.4146 76.6365 26.3625 76.6365 26.2321V14.7589C76.6365 14.6285 76.7148 14.5763 76.8451 14.5763H89.8308C89.9351 14.5763 90.0133 14.6285 90.0133 14.7589V26.2321C90.0133 26.3625 89.9612 26.4146 89.8308 26.4146H76.8451Z" fill="#7B1931"/>
<path d="M148.005 14.5762H165.085V11.1603H150.039H148.005H146.154C144.928 11.1603 143.937 12.073 143.937 13.2203V14.7848V15.5149V17.8617V18.5919V20.1564C143.937 21.3037 144.928 22.2164 146.154 22.2164H148.005H150.039H160.991C161.121 22.2164 161.173 22.2685 161.173 22.3989V26.232C161.173 26.3624 161.121 26.4145 160.991 26.4145H143.911V29.8305C143.911 29.8305 154.42 29.8305 158.957 29.8305C160.104 29.8305 160.886 29.8305 160.991 29.8305H162.842C164.068 29.8305 165.058 28.9178 165.058 27.7705V26.2059V25.4758V23.129V22.3989V20.8344C165.058 19.687 164.068 18.7744 162.842 18.7744H160.991H158.957H148.005C147.875 18.7744 147.796 18.7222 147.796 18.5919V14.7588C147.822 14.6284 147.875 14.5762 148.005 14.5762Z" fill="black"/>
<path d="M118.279 28.9439L113.012 23.4158H114.159H116.036C117.262 23.4158 118.253 22.5032 118.253 21.3559V19.7913V19.0612V15.5149V14.7848V13.2203C118.253 12.073 117.262 11.1603 116.036 11.1603H114.159H112.151H97.1055V29.8305H100.991V23.4158H107.927L114.029 29.8305H117.575H118.253H119.087L118.279 28.9439ZM101.199 19.9999C101.069 19.9999 100.991 19.9478 100.991 19.8174V14.7848C100.991 14.6544 101.069 14.6023 101.199 14.6023H114.159C114.289 14.6023 114.368 14.6544 114.368 14.7848V19.8174C114.368 19.9478 114.289 19.9999 114.159 19.9999H101.199Z" fill="black"/>
<path d="M141.825 28.9179L141.33 28.3964L140.443 27.4576L139.348 26.2842L133.846 20.4694L140.443 13.5072L142.686 11.1343H141.825H140.886H137.549C136.375 12.3859 135.176 13.6376 133.924 14.9413C132.699 16.2451 131.473 17.5228 130.3 18.7484H125.293V11.1082H121.382V29.8044H125.293V22.1643H130.3L137.523 29.8044H140.86H141.799H142.66L141.825 28.9179Z" fill="black"/>
<path d="M0 13.8201L10.1956 33.8983L28.7875 40L18.0704 31.9426L15.0456 23.1551L0 13.8201Z" fill="black"/>
<path d="M31.6294 0L16.1926 19.2438L6.25781 12.7249L31.6294 0Z" fill="black"/>
<path d="M29.909 7.27507C29.6221 7.6662 22.8164 17.8878 22.8164 17.8878L30.4305 19.1916L25.45 33.2725L39.1919 17.7314L29.909 7.27507Z" fill="black"/>
</svg>
