<svg width="40" height="40" viewBox="0 0 40 40" fill="none" xmlns="http://www.w3.org/2000/svg">
<rect width="40" height="40" rx="20" fill="#7B1931"/>
<path d="M21.2151 7.98144C26.7847 7.98144 31.3 8.93103 31.3 14.8818C31.2998 20.6376 26.7845 21.7812 21.2151 21.7812C18.9777 21.7812 17.2368 21.7804 15.8821 21.7051C15.8408 22.2388 15.7915 22.7548 15.7307 23.2451C15.3769 25.8504 14.1386 30.2734 12.1926 32.2178C11.1311 32.3972 9.36623 30.6922 8.30005 29.5156C10.6906 25.5262 11.0624 21.0054 11.1536 17.2461C11.1311 16.5653 11.1311 15.7823 11.1311 14.8818C11.1311 7.9819 11.1308 7.98144 21.2151 7.98144ZM21.5696 10.8633C15.3774 10.8633 16.0842 10.8629 16.0842 14.5781C16.0842 18.2935 15.5542 18.2939 21.5696 18.2939C24.5985 18.2939 27.054 17.2825 27.054 14.5781C27.0539 11.8739 24.5984 10.8634 21.5696 10.8633Z" fill="white"/>
<path d="M25.9928 26.8511C27.4583 26.8513 28.6461 28.0398 28.6461 29.5054C28.6459 30.9707 27.4581 32.1584 25.9928 32.1587C24.5273 32.1587 23.3387 30.9708 23.3385 29.5054C23.3385 28.0397 24.5271 26.8511 25.9928 26.8511Z" fill="white"/>
</svg>
